<svg width="324" height="646" viewBox="0 0 324 646" fill="none" xmlns="http://www.w3.org/2000/svg">
<g clip-path="url(#clip0_268_1301)">
<path d="M640.578 322.152C640.578 497.15 498.701 638.978 323.752 638.978C-96.5524 622.273 -96.4071 21.9346 323.752 5.27734C498.75 5.27734 640.578 147.154 640.578 322.104V322.152Z" fill="white"/>
<path d="M596.076 322.153C596.076 472.503 474.198 594.382 323.847 594.382C-37.237 580.049 -37.1402 64.2079 323.847 49.9233C474.198 49.9233 596.076 171.802 596.076 322.153Z" fill="black"/>
<path d="M323.847 646C145.266 646 0 500.734 0 322.153C17.7709 -107.448 629.972 -107.352 647.695 322.153C647.695 500.734 502.428 646 323.847 646ZM323.847 23.4367C159.115 23.4367 25.0827 157.421 25.0827 322.153C41.4978 718.488 606.197 718.392 622.564 322.153C622.564 157.421 488.531 23.3883 323.799 23.3883L323.847 23.4367Z" fill="#EF8626"/>
<path d="M419.384 343.556C404.422 343.556 390.234 340.07 377.644 333.775C379.726 331.499 381.566 329.078 383.019 326.56C383.019 326.56 383.019 326.512 383.068 326.463C383.503 325.689 383.939 324.914 384.327 324.091C385.682 321.379 386.651 318.571 387.232 315.665C387.426 314.745 387.571 313.825 387.716 312.905C388.152 309.952 388.055 306.852 387.522 303.947C387.474 303.608 387.377 303.269 387.28 302.93C384.52 289.082 372.899 277.17 356.339 270.003C356.339 270.003 356.339 270.003 356.242 270.003C355.709 269.761 355.128 269.519 354.595 269.277C354.111 269.083 353.578 268.89 353.094 268.696C352.755 268.551 352.416 268.454 352.077 268.308C351.835 268.212 351.593 268.115 351.351 268.018C351.061 267.873 350.77 267.776 350.431 267.679C350.092 267.582 349.753 267.485 349.414 267.34C346.557 266.323 343.555 265.5 340.456 264.822C339.584 264.628 338.713 264.483 337.841 264.289C334.597 263.66 331.256 263.224 327.866 262.982C327.188 262.885 326.511 262.837 325.833 262.837C323.896 262.691 321.959 262.643 320.022 262.643H318.86C318.23 262.643 317.601 262.691 316.923 262.691C313.533 262.788 310.241 263.079 306.996 263.563C306.996 263.563 306.996 263.563 306.948 263.563C306.125 263.612 305.35 263.757 304.575 263.854V263.902C301.137 264.435 297.796 265.161 294.697 266.081C293.487 266.42 292.276 266.807 291.065 267.146C290.969 267.243 290.823 267.243 290.678 267.34C290.097 267.534 289.564 267.776 288.983 267.969C287.966 268.308 286.998 268.696 286.03 269.083C285.787 269.18 285.545 269.228 285.303 269.374C284.819 269.567 284.335 269.761 283.851 270.003C266.903 277.363 254.991 289.663 252.667 303.947C252.618 304.383 252.57 304.819 252.473 305.206C251.989 308.402 252.134 311.743 252.764 314.891C252.909 315.665 253.103 316.44 253.296 317.215C254.071 320.169 255.233 323.025 256.734 325.737C256.879 325.979 256.976 326.173 257.122 326.415C257.412 326.899 257.703 327.383 258.042 327.868C259.688 330.434 261.673 332.904 263.949 335.228C241.82 345.639 212.767 346.22 190.154 336.632C181.486 353.386 175.918 371.98 174.126 391.64C174.417 391.882 174.804 392.124 175.094 392.318C177.419 394.012 179.937 395.707 182.648 397.353C183.423 397.838 184.198 398.322 185.021 398.806C185.554 399.145 186.135 399.436 186.667 399.775C187.781 400.404 188.846 401.082 190.008 401.711C191.848 402.728 193.737 403.697 195.722 404.714C206.23 409.943 218.771 414.882 233.734 418.901L255.766 423.744C271.358 426.6 289.032 428.441 309.079 428.925C315.325 429.118 322.104 429.118 328.399 428.925C329.319 428.925 330.287 428.925 331.159 428.925C352.901 428.392 371.737 426.262 388.104 423.163C396.045 421.613 403.356 419.87 410.136 417.933C427.132 413.139 440.642 407.28 451.246 401.373C455.459 399.048 459.187 396.724 462.528 394.448C466.499 391.737 469.985 389.073 473.084 386.41C470.809 368.252 465.288 351.159 457.154 335.615C445.581 340.7 432.846 343.508 419.433 343.508L419.384 343.556ZM290.242 297.265C291.017 297.265 291.792 297.41 292.518 297.507C294.552 297.749 296.489 298.33 298.28 299.202C304.527 302.204 308.594 308.45 308.643 315.665H271.842C271.842 311.985 272.956 308.547 274.844 305.69C276.829 302.64 279.686 300.17 283.076 298.718C285.303 297.798 287.724 297.265 290.242 297.265ZM339.972 300.17C341.618 299.153 343.41 298.379 345.347 297.894C347.526 297.313 349.947 297.071 352.174 297.507C360.697 298.572 367.379 305.497 368.105 314.116C368.105 314.648 368.25 315.133 368.25 315.665H331.45C331.45 309.128 334.839 303.463 339.972 300.17Z" fill="white"/>
<path d="M410.087 506.398C403.259 509.497 395.899 512.257 388.055 514.582C371.446 519.618 352.513 522.862 331.11 523.685C323.944 524.024 316.245 524.024 309.078 523.685C289.225 522.959 271.503 520.102 255.766 515.647C247.97 513.468 240.609 510.902 233.733 507.948C219.885 502.137 207.924 495.019 197.514 486.981C259.155 584.068 406.31 576.417 457.88 473.956C455.749 475.989 453.57 478.023 451.246 480.057C439.818 490.08 426.26 499.135 410.135 506.398H410.087Z" fill="white"/>
<path d="M233.686 436.38C219.16 432.797 206.57 428.439 195.675 423.597V464.174C206.037 473.859 218.578 482.72 233.686 489.79V436.38Z" fill="white"/>
<path d="M309.028 445.726C289.223 445.291 271.5 443.547 255.715 440.933V498.313C271.21 503.058 288.884 506.109 309.028 506.932V445.726Z" fill="white"/>
<path d="M224.483 252.618C242.157 252.182 242.157 226.228 224.483 225.792C206.809 226.228 206.809 252.182 224.483 252.618Z" fill="white"/>
<path d="M419.382 144.636C419.382 144.636 419.14 144.636 419.043 144.636H225.742C171.799 144.2 127.977 190.201 130.98 244.047V244.143C133.013 283.365 159.016 316.341 194.655 328.592C214.363 335.71 238.477 335.419 257.991 327.962C257.7 327.478 257.361 326.994 257.071 326.461L256.974 326.364C256.78 326.219 256.635 326.074 256.538 325.88C254.262 323.459 252.326 320.893 250.728 318.229C250.292 317.551 249.904 316.873 249.517 316.244C248.113 313.436 246.999 310.53 246.273 307.528C234.651 311.208 220.754 311.741 208.842 308.69C178.918 301.621 156.256 275.666 154.125 244.143C151.075 203.178 184.292 167.685 225.354 167.83H225.451C266.465 167.733 299.634 203.227 296.583 244.143C296.438 246.661 296.148 249.082 295.712 251.504C296.051 251.407 296.39 251.31 296.729 251.261C300.263 250.487 303.847 249.906 307.624 249.518C307.817 249.518 308.059 249.47 308.253 249.421C311.836 249.082 315.565 248.84 319.342 248.84C319.487 247.291 319.632 245.741 319.681 244.192V244.095C321.375 214.267 308.253 186.037 287.044 167.83H357.498C336.338 185.988 323.167 214.267 324.91 244.095V244.192C324.959 245.79 325.104 247.339 325.249 248.937C329.026 249.131 332.755 249.47 336.338 250.003C336.58 250.003 336.822 250.002 337.016 250.148C337.016 250.148 337.016 250.148 337.064 250.148C340.841 250.68 344.473 251.455 347.959 252.375C348.347 252.472 348.734 252.569 349.121 252.666C348.589 249.906 348.201 247.049 348.056 244.143C345.005 203.227 378.126 167.733 419.14 167.83H419.285C460.395 167.685 493.516 203.178 490.514 244.143C488.48 274.795 466.981 300.216 438.267 308.061C424.176 312.177 407.567 311.305 394.057 306.027C393.525 309.029 392.556 311.934 391.249 314.694C390.91 315.421 390.571 316.147 390.135 316.874C390.135 316.874 390.135 316.97 390.087 316.97C388.634 319.585 386.939 322.103 384.857 324.476C384.857 324.476 384.857 324.476 384.809 324.524C384.276 325.202 383.695 325.832 383.065 326.413H383.017V326.51V326.558C404.129 335.71 431.052 336.194 452.551 327.768C486.882 314.888 511.771 282.542 513.757 244.192V244.095C516.71 190.346 473.179 144.539 419.333 144.684L419.382 144.636Z" fill="#EF8626"/>
</g>
<defs>
<clipPath id="clip0_268_1301">
<rect width="647.695" height="646" fill="white"/>
</clipPath>
</defs>
</svg>
