<svg width="24" height="22" viewBox="0 0 24 22" fill="none" xmlns="http://www.w3.org/2000/svg">
<path d="M0 3.5C0 1.84531 1.34531 0.5 3 0.5H21C22.6547 0.5 24 1.84531 24 3.5V18.5C24 20.1547 22.6547 21.5 21 21.5H3C1.34531 21.5 0 20.1547 0 18.5V3.5ZM10.5 3.5V18.5H21V3.5H10.5ZM4.125 3.5C3.50156 3.5 3 4.00156 3 4.625C3 5.24844 3.50156 5.75 4.125 5.75H6.375C6.99844 5.75 7.5 5.24844 7.5 4.625C7.5 4.00156 6.99844 3.5 6.375 3.5H4.125ZM3 9.125C3 9.74844 3.50156 10.25 4.125 10.25H6.375C6.99844 10.25 7.5 9.74844 7.5 9.125C7.5 8.50156 6.99844 8 6.375 8H4.125C3.50156 8 3 8.50156 3 9.125ZM4.125 12.5C3.50156 12.5 3 13.0016 3 13.625C3 14.2484 3.50156 14.75 4.125 14.75H6.375C6.99844 14.75 7.5 14.2484 7.5 13.625C7.5 13.0016 6.99844 12.5 6.375 12.5H4.125Z" fill="#75716D"/>
</svg>
