<svg width="30" height="31" viewBox="0 0 30 31" fill="none" xmlns="http://www.w3.org/2000/svg">
<path d="M15 0.143066C6.71 0.143066 0 6.85307 0 15.1431C0 23.4231 6.71 30.1431 15 30.1431C23.28 30.1431 30 23.4231 30 15.1431C30 6.85307 23.28 0.143066 15 0.143066ZM17.4 22.2931C16.99 22.3631 16.84 22.1131 16.84 21.9031C16.84 21.6431 16.85 20.3031 16.85 19.2131C16.89 18.6631 16.7 18.1231 16.31 17.7231C18.1 17.5231 20 17.2731 20 14.1731C20 13.4531 19.7 12.7631 19.17 12.2831C19.41 11.5731 19.38 10.7931 19.08 10.1031C18.41 9.88307 16.86 10.9631 16.86 10.9631C15.54 10.6031 14.15 10.6031 12.83 10.9631C12.83 10.9631 11.28 9.89307 10.61 10.1031C10.31 10.7931 10.28 11.5731 10.53 12.2831C10.01 12.7731 9.73 13.4631 9.77 14.1731C9.77 17.2631 11.58 17.5231 13.38 17.7231C13.09 18.0131 12.9 18.4031 12.86 18.8131C12.85 18.8131 12.83 18.8231 12.82 18.8331C11.99 19.2731 10.96 18.9631 10.52 18.1331C10.26 17.6831 9.8 17.3831 9.28 17.3131C8.49 17.3031 9.23 17.8031 9.23 17.8031C9.76 18.0431 10.12 18.9831 10.12 18.9831C10.59 20.4231 12.84 19.9331 12.84 19.9331C12.84 20.6131 12.85 21.7031 12.85 21.9131C12.85 22.1231 12.71 22.3731 12.3 22.3031C9.02 21.1731 6.82 18.0831 6.85 14.6131V14.3131C6.94 10.0531 10.46 6.68307 14.72 6.77307C14.77 6.77307 14.82 6.76307 14.87 6.76307C19.22 6.74307 22.77 10.2631 22.79 14.6131C22.85 18.0731 20.67 21.1731 17.4 22.2931Z" fill="#EF8626"/>
</svg>
