<svg width="31" height="35" viewBox="0 0 31 35" fill="none" xmlns="http://www.w3.org/2000/svg">
<g clip-path="url(#clip0_268_1262)">
<path d="M13.9016 14.1765C13.5116 14.4373 13.1768 14.7723 12.9163 15.1624C12.6557 15.5526 12.4746 15.9902 12.3832 16.4504C12.1986 17.3797 12.3907 18.3442 12.9173 19.1319C13.4439 19.9196 14.2618 20.4658 15.1911 20.6504C16.1204 20.835 17.085 20.6429 17.8726 20.1163C18.6603 19.5897 19.2065 18.7718 19.3911 17.8425C19.5757 16.9132 19.3836 15.9486 18.857 15.1609C18.3304 14.3733 17.5125 13.8271 16.5832 13.6424C15.6539 13.4578 14.6893 13.65 13.9016 14.1765ZM23.4307 9.59619C23.0824 9.24798 22.6606 8.97342 22.1985 8.79262C20.9865 8.31717 18.3414 8.33726 16.6338 8.35735C16.3592 8.35735 16.1048 8.36405 15.8838 8.36405C15.6628 8.36405 15.4016 8.36405 15.1204 8.35735C13.4128 8.33726 10.7811 8.31048 9.56906 8.79262C9.107 8.97342 8.69182 9.24798 8.33691 9.59619C7.982 9.94441 7.71415 10.3663 7.53334 10.8283C7.0579 12.0404 7.08468 14.6922 7.09807 16.3998C7.09807 16.6743 7.10477 16.9288 7.10477 17.1431C7.10477 17.3574 7.10477 17.6118 7.09807 17.8864C7.08468 19.594 7.0579 22.2457 7.53334 23.4578C7.71415 23.9199 7.9887 24.335 8.33691 24.6899C8.68513 25.0449 9.107 25.3127 9.56906 25.4935C10.7811 25.969 13.4262 25.9489 15.1338 25.9288C15.4083 25.9288 15.6628 25.9221 15.8838 25.9221C16.1048 25.9221 16.3659 25.9221 16.6472 25.9288C18.3548 25.9489 20.9865 25.9757 22.1985 25.4935C22.6606 25.3127 23.0758 25.0382 23.4307 24.6899C23.7856 24.3417 24.0534 23.9199 24.2342 23.4578C24.7164 22.2524 24.6896 19.614 24.6695 17.8998C24.6695 17.6185 24.6628 17.3574 24.6628 17.1364C24.6628 16.9154 24.6628 16.6609 24.6695 16.373C24.6896 14.6654 24.7164 12.027 24.2342 10.8149C24.0534 10.3529 23.7789 9.93771 23.4307 9.5828V9.59619ZM18.9374 12.5761C20.1486 13.386 20.9885 14.6438 21.2723 16.0729C21.5561 17.5021 21.2606 18.9854 20.4508 20.1966C20.0498 20.7964 19.5345 21.3113 18.9346 21.7119C18.3346 22.1125 17.6616 22.3911 16.9539 22.5316C15.5248 22.8154 14.0415 22.5199 12.8302 21.71C11.619 20.9011 10.7787 19.6441 10.4943 18.2156C10.2098 16.7871 10.5045 15.3041 11.3135 14.0928C12.1224 12.8816 13.3794 12.0413 14.8079 11.7569C16.2364 11.4725 17.7194 11.7671 18.9307 12.5761H18.9374ZM20.8927 12.489C20.6851 12.3484 20.5177 12.1475 20.4173 11.9132C20.3168 11.6788 20.2967 11.4243 20.3436 11.1699C20.3905 10.9154 20.5177 10.6944 20.6918 10.5136C20.8659 10.3328 21.1003 10.2123 21.3481 10.1654C21.5958 10.1185 21.857 10.1386 22.0914 10.239C22.3258 10.3395 22.5266 10.5002 22.6673 10.7078C22.8079 10.9154 22.8816 11.1632 22.8816 11.4176C22.8816 11.585 22.8481 11.7524 22.7878 11.9065C22.7275 12.0605 22.6271 12.2011 22.5133 12.3216C22.3994 12.4422 22.2521 12.5359 22.0981 12.6029C21.9441 12.6699 21.7766 12.7033 21.6092 12.7033C21.3548 12.7033 21.107 12.6297 20.8994 12.489H20.8927ZM30.8838 6.42878C30.8838 4.06494 28.9619 2.14307 26.5981 2.14307H5.1695C2.80566 2.14307 0.883789 4.06494 0.883789 6.42878V27.8574C0.883789 30.2212 2.80566 32.1431 5.1695 32.1431H26.5981C28.9619 32.1431 30.8838 30.2212 30.8838 27.8574V6.42878ZM24.79 26.0493C23.5378 27.3015 22.0177 27.6966 20.3034 27.7837C18.5356 27.8841 13.232 27.8841 11.4641 27.7837C9.74986 27.6966 8.22977 27.3015 6.97754 26.0493C5.72531 24.7971 5.33022 23.277 5.24986 21.5627C5.14941 19.7949 5.14941 14.4913 5.24986 12.7234C5.33691 11.0091 5.72531 9.48905 6.97754 8.23682C8.22977 6.98458 9.75656 6.58949 11.4641 6.50914C13.232 6.40869 18.5356 6.40869 20.3034 6.50914C22.0177 6.59619 23.5378 6.98458 24.79 8.23682C26.0423 9.48905 26.4374 11.0091 26.5177 12.7234C26.6182 14.4846 26.6182 19.7815 26.5177 21.556C26.4307 23.2703 26.0423 24.7904 24.79 26.0426V26.0493Z" fill="#EF8626"/>
</g>
<defs>
<clipPath id="clip0_268_1262">
<rect width="30" height="34.2857" fill="white" transform="translate(0.883789)"/>
</clipPath>
</defs>
</svg>
