<svg width="24" height="25" viewBox="0 0 24 25" fill="none" xmlns="http://www.w3.org/2000/svg">
<path d="M21 12.7778C21 7.80908 16.9688 3.77783 12 3.77783V21.7778C16.9688 21.7778 21 17.7466 21 12.7778ZM0 12.7778C0 9.59523 1.26428 6.54299 3.51472 4.29255C5.76516 2.04211 8.8174 0.777832 12 0.777832C15.1826 0.777832 18.2348 2.04211 20.4853 4.29255C22.7357 6.54299 24 9.59523 24 12.7778C24 15.9604 22.7357 19.0127 20.4853 21.2631C18.2348 23.5135 15.1826 24.7778 12 24.7778C8.8174 24.7778 5.76516 23.5135 3.51472 21.2631C1.26428 19.0127 0 15.9604 0 12.7778Z" fill="#75716D"/>
</svg>
