<svg width="24" height="24" viewBox="0 0 24 24" fill="none" xmlns="http://www.w3.org/2000/svg">
<g clip-path="url(#clip0_145_831)">
<path d="M22.1063 1.01718C21.0797 -0.00938722 19.4203 -0.00938722 18.3937 1.01718L16.9828 2.42343L21.5719 7.01249L22.9828 5.60155C24.0094 4.57499 24.0094 2.91561 22.9828 1.88905L22.1063 1.01718ZM8.08125 11.3297C7.79531 11.6156 7.575 11.9672 7.44844 12.3562L6.06094 16.5187C5.925 16.9219 6.03281 17.3672 6.33281 17.6719C6.63281 17.9766 7.07812 18.0797 7.48594 17.9437L11.6484 16.5562C12.0328 16.4297 12.3844 16.2094 12.675 15.9234L20.5172 8.07655L15.9234 3.4828L8.08125 11.3297ZM4.5 2.99999C2.01562 2.99999 0 5.01561 0 7.49999V19.5C0 21.9844 2.01562 24 4.5 24H16.5C18.9844 24 21 21.9844 21 19.5V15C21 14.1703 20.3297 13.5 19.5 13.5C18.6703 13.5 18 14.1703 18 15V19.5C18 20.3297 17.3297 21 16.5 21H4.5C3.67031 21 3 20.3297 3 19.5V7.49999C3 6.6703 3.67031 5.99999 4.5 5.99999H9C9.82969 5.99999 10.5 5.32968 10.5 4.49999C10.5 3.6703 9.82969 2.99999 9 2.99999H4.5Z" fill="currentColor"/>
</g>
<defs>
<clipPath id="clip0_145_831">
<rect width="24" height="24" fill="white"/>
</clipPath>
</defs>
</svg>
