<svg viewBox="0 0 24 28" fill="none" xmlns="http://www.w3.org/2000/svg">
<g clip-path="url(#clip0_145_812)">
<path d="M13.2107 0.567174C12.5411 -0.102469 11.4536 -0.102469 10.7839 0.567174L3.92679 7.42432C3.25714 8.09396 3.25714 9.18146 3.92679 9.8511C4.59643 10.5207 5.68393 10.5207 6.35357 9.8511L10.2857 5.91896V17.2065C10.2857 18.1547 11.0518 18.9207 12 18.9207C12.9482 18.9207 13.7143 18.1547 13.7143 17.2065V5.91896L17.6464 9.8511C18.3161 10.5207 19.4036 10.5207 20.0732 9.8511C20.7429 9.18146 20.7429 8.09396 20.0732 7.42432L13.2161 0.567174H13.2107ZM3.42857 18.9207C3.42857 17.9725 2.6625 17.2065 1.71429 17.2065C0.766071 17.2065 0 17.9725 0 18.9207V22.3493C0 25.1886 2.30357 27.4922 5.14286 27.4922H18.8571C21.6964 27.4922 24 25.1886 24 22.3493V18.9207C24 17.9725 23.2339 17.2065 22.2857 17.2065C21.3375 17.2065 20.5714 17.9725 20.5714 18.9207V22.3493C20.5714 23.2975 19.8054 24.0636 18.8571 24.0636H5.14286C4.19464 24.0636 3.42857 23.2975 3.42857 22.3493V18.9207Z" fill="currentColor"/>
</g>
<defs>
<clipPath id="clip0_145_812">
<rect width="24" height="27.4286" fill="white" transform="translate(0 0.0635376)"/>
</clipPath>
</defs>
</svg>
